<?xml version="1.0" encoding="utf-8"?>
<!-- Generator: Adobe Illustrator 22.0.1, SVG Export Plug-In . SVG Version: 6.00 Build 0)  -->
<svg version="1.1" id="Layer_1" xmlns="http://www.w3.org/2000/svg" xmlns:xlink="http://www.w3.org/1999/xlink" x="0px" y="0px"
	 viewBox="0 0 238 38" style="enable-background:new 0 0 238 38;" xml:space="preserve">
<style type="text/css">
	.st0{fill:#EFEFEF;}
</style>
<path class="st0" d="M231.2,28.2c-8.2,0-12.4-3.4-15.8-6.1c-2.9-2.4-4.9-3.9-9.2-3.9c-4.3,0-6.2,1.6-9.2,3.9
	c-3.4,2.7-7.6,6.1-15.8,6.1c-8.2,0-12.4-3.4-15.8-6.1c-2.9-2.4-4.9-3.9-9.2-3.9c-4.3,0-6.2,1.6-9.2,3.9c-3.4,2.7-7.6,6.1-15.8,6.1
	s-12.4-3.4-15.8-6.1c-2.9-2.4-4.9-3.9-9.2-3.9c-4.3,0-6.2,1.6-9.2,3.9c-3.4,2.7-7.6,6.1-15.8,6.1s-12.4-3.4-15.8-6.1
	c-2.9-2.4-4.9-3.9-9.2-3.9s-6.2,1.6-9.2,3.9c-3.4,2.7-7.6,6.1-15.8,6.1c-8.2,0-12.4-3.4-15.8-6.1c-2.9-2.4-4.9-3.9-9.2-3.9v-7.5
	c8.2,0,12.4,3.4,15.8,6.1c2.9,2.4,4.9,3.9,9.2,3.9s6.2-1.6,9.2-3.9c3.4-2.7,7.6-6.1,15.8-6.1S69,14,72.4,16.7
	c2.9,2.4,4.9,3.9,9.2,3.9s6.2-1.6,9.2-3.9c3.4-2.7,7.6-6.1,15.8-6.1c8.2,0,12.4,3.4,15.8,6.1c2.9,2.4,4.9,3.9,9.2,3.9
	c4.3,0,6.2-1.6,9.2-3.9c3.4-2.7,7.6-6.1,15.8-6.1c8.2,0,12.4,3.4,15.8,6.1c2.9,2.4,4.9,3.9,9.2,3.9c4.3,0,6.2-1.6,9.2-3.9
	c3.4-2.7,7.6-6.1,15.8-6.1c8.2,0,12.4,3.4,15.8,6.1c2.9,2.4,4.9,3.9,9.2,3.9V28.2z"/>
</svg>
