<?xml version="1.0" encoding="utf-8"?>
<!-- Generator: Adobe Illustrator 22.0.1, SVG Export Plug-In . SVG Version: 6.00 Build 0)  -->
<svg version="1.1" id="Layer_1" xmlns="http://www.w3.org/2000/svg" xmlns:xlink="http://www.w3.org/1999/xlink" x="0px" y="0px"
	 viewBox="0 0 446.5 36.4" style="enable-background:new 0 0 446.5 36.4;" xml:space="preserve">
<style type="text/css">
	.st0{fill:#FFFFFF;}
</style>
<path class="st0" d="M438.3,7.6c-3.4-2.7-7.6-6.1-15.8-6.1c-8.2,0-12.4,3.4-15.8,6.1c-2.9,2.4-4.9,3.9-9.2,3.9
	c-4.3,0-6.2-1.6-9.2-3.9c-3.4-2.7-7.6-6.1-15.8-6.1c-8.2,0-12.4,3.4-15.8,6.1c-2.9,2.4-4.9,3.9-9.2,3.9c-4.3,0-6.2-1.6-9.2-3.9
	c-3.4-2.7-7.6-6.1-15.8-6.1c-8.2,0-12.4,3.4-15.8,6.1c-2.9,2.4-4.9,3.9-9.2,3.9c-4.3,0-6.2-1.6-9.2-3.9c-3.4-2.7-7.6-6.1-15.8-6.1
	s-12.4,3.4-15.8,6.1c-2.9,2.4-4.9,3.9-9.2,3.9c-4.3,0-6.2-1.6-9.2-3.9c-3.4-2.7-7.6-5.8-15.8-5.8l0,0c-7.2,0.4-11.1,3.5-14.3,6.1
	c-2.9,2.4-4.9,3.9-9.2,3.9s-6.2-1.6-9.2-3.9c-3.4-2.7-7.6-6.1-15.8-6.1c-8.2,0-12.4,3.4-15.8,6.1c-2.9,2.4-4.9,3.9-9.2,3.9
	c-4.3,0-6.2-1.6-9.2-3.9c-3.4-2.7-7.6-6.1-15.8-6.1c-8.2,0-12.4,3.4-15.8,6.1c-2.9,2.4-4.9,3.9-9.2,3.9c-4.3,0-6.2-1.6-9.2-3.9
	C87.3,5.2,83.1,1.8,75,1.8c-8.2,0-12.4,3.4-15.8,6.1c-2.9,2.4-4.9,3.9-9.2,3.9c-4.3,0-6.2-1.6-9.2-3.9c-3.4-2.7-7.6-6.1-15.8-6.1
	C16.9,1.8,12.7,5.2,9.3,8c-2.9,2.4-4.9,3.9-9.2,3.9v2.5v5v17h447.4V19.1v-4.7v-2.8C443.2,11.5,441.3,10,438.3,7.6z"/>
</svg>
